<?xml version="1.0" encoding="UTF-8"?>
<svg width="512" height="512" viewBox="0 0 512 512" fill="none" xmlns="http://www.w3.org/2000/svg">
  <rect width="512" height="512" rx="100" fill="#1976D2"/>
  <path d="M396 276c-8.8 0-16-7.2-16-16s7.2-16 16-16 16 7.2 16 16-7.2 16-16 16zm-280 0c-8.8 0-16-7.2-16-16s7.2-16 16-16 16 7.2 16 16-7.2 16-16 16zm314-90h-38.4c-4 0-7.6-2.4-9.2-6l-26.4-52.8c-5.6-11.2-16.8-18.4-29.2-18.4H185.2c-12.4 0-23.6 7.2-29.2 18.4L129.6 180c-1.6 3.6-5.2 6-9.2 6H82c-12.4 0-22 9.6-22 22v98c0 12.4 9.6 22 22 22h28v22c0 12.4 9.6 22 22 22h36c12.4 0 22-9.6 22-22v-22h132v22c0 12.4 9.6 22 22 22h36c12.4 0 22-9.6 22-22v-22h28c12.4 0 22-9.6 22-22v-98c0-12.4-9.6-22-22-22z" fill="white"/>
</svg>
